<?xml version="1.0" encoding="utf-8"?>
<!-- Generator: Adobe Illustrator 25.1.0, SVG Export Plug-In . SVG Version: 6.00 Build 0)  -->
<svg version="1.1" id="Layer_1" xmlns="http://www.w3.org/2000/svg" xmlns:xlink="http://www.w3.org/1999/xlink" x="0px" y="0px"
	 viewBox="0 0 25 28" style="enable-background:new 0 0 25 28;" xml:space="preserve">
<style type="text/css">
	.st0{fill-rule:evenodd;clip-rule:evenodd;fill:#FFFFFF;}
</style>
<path class="st0" d="M15.2,1.3c-1,0-2.1,0.2-3.1,0.6C8.2,3.5,5.5,7,4.3,11.3c-0.2,0.8-0.4,1.6-0.5,2.4c0,0-0.1,0.8,0.1,0.6
	C4,14.1,4,13.8,4.1,13.6c0.6-2,1.3-3.8,2.4-5.5c2.6-3.9,6.9-6.4,11.4-5c0.8,0.3,1.6,0.7,2.3,1.2c0.1,0.1,1.2,0.9,1,0.2
	c-0.2-0.6-0.7-1.1-1.1-1.5C18.6,1.7,16.9,1.2,15.2,1.3L15.2,1.3z M14.2,6.2c-0.5,0-1.1,0.1-1.6,0.4C11,7.4,10.3,9.4,11.2,11
	c0.8,1.6,2.8,2.3,4.4,1.4c1.6-0.8,2.2-2.8,1.4-4.4C16.4,6.9,15.4,6.3,14.2,6.2L14.2,6.2z M16.4,14.2c-1,0.6-2.2,1-3.5,1
	c-0.3,0-0.5,0-0.8,0v9.5c0,0.9,0.2,1.5,0.6,2c0.4,0.4,0.9,0.7,1.5,0.7c0.6,0,1.2-0.2,1.6-0.7c0.4-0.4,0.6-1.1,0.6-2L16.4,14.2
	L16.4,14.2z"/>
</svg>
