<?xml version="1.0" encoding="utf-8"?>
<!-- Generator: Adobe Illustrator 25.1.0, SVG Export Plug-In . SVG Version: 6.00 Build 0)  -->
<svg version="1.1" id="Layer_1" xmlns="http://www.w3.org/2000/svg" xmlns:xlink="http://www.w3.org/1999/xlink" x="0px" y="0px"
	 viewBox="0 0 42 48" style="enable-background:new 0 0 42 48;" xml:space="preserve">
<style type="text/css">
	.st0{fill-rule:evenodd;clip-rule:evenodd;fill:#2164F3;}
</style>
<path class="st0" d="M-263.8-41.9c-20.4,0.5-41,4.8-60.5,11.9C-400,1.5-452.6,70.4-476.4,153.1c-4,15.5-7.3,31.1-9,47.1
	c0,0.5-1.3,16.3,1,12c2.3-3.7,3.3-9.3,4.5-13.5c11.5-38.8,25.6-74.2,47.1-107.7C-381.2,15-298.2-33.9-210.5-6.8
	c16.3,5.5,30.8,13.5,45.4,23c2.7,2,23,18,18.5,3.5c-3.8-11.5-13.3-21.3-21.6-29.1C-196.1-33.4-229.7-42.9-263.8-41.9L-263.8-41.9z
	 M-283.5,54.9c-10.6-0.3-21.1,2.1-30.5,7c-31.3,15.8-43.9,54.1-27.8,85.4c15.8,31.3,54.1,43.9,85.4,27.8
	c31.3-15.8,43.9-54.1,27.8-85.4C-239.1,68.9-260.2,55.5-283.5,54.9L-283.5,54.9z M-240.6,209.5c-20.1,12-43.6,18.8-68.7,18.8
	c-5.3,0-10.3-0.2-15.5-0.8v184.4c0,17,4,29.8,11.8,38.3c8,8.8,17.8,13,30.1,13c12.5,0,22.8-4.3,30.6-12.8
	c7.8-8.5,11.8-21.3,11.8-38.6L-240.6,209.5L-240.6,209.5z"/>
<path class="st0" d="M25.3,1.6c-1.8,0-3.6,0.4-5.4,1.1C13.2,5.5,8.6,11.6,6.5,18.9c-0.4,1.4-0.6,2.8-0.8,4.2c0,0-0.1,1.4,0.1,1.1
	C6,23.8,6,23.3,6.2,22.9c1-3.4,2.3-6.6,4.2-9.6C14.9,6.7,22.3,2.3,30,4.7c1.4,0.5,2.7,1.2,4,2c0.2,0.2,2,1.6,1.6,0.3
	c-0.3-1-1.2-1.9-1.9-2.6C31.3,2.4,28.3,1.5,25.3,1.6L25.3,1.6z M23.6,10.2c-0.9,0-1.9,0.2-2.7,0.6c-2.8,1.4-3.9,4.8-2.5,7.6
	c1.4,2.8,4.8,3.9,7.6,2.5c2.8-1.4,3.9-4.8,2.5-7.6C27.5,11.4,25.6,10.2,23.6,10.2L23.6,10.2z M27.4,23.9c-1.8,1.1-3.9,1.7-6.1,1.7
	c-0.5,0-0.9,0-1.4-0.1v16.4c0,1.5,0.4,2.6,1,3.4c0.7,0.8,1.6,1.2,2.7,1.2c1.1,0,2-0.4,2.7-1.1c0.7-0.8,1-1.9,1-3.4L27.4,23.9
	L27.4,23.9z"/>
<path class="st0" d="M103.3,11.3c-1,0-2.1,0.2-3.1,0.6c-3.9,1.6-6.6,5.2-7.8,9.4c-0.2,0.8-0.4,1.6-0.5,2.4c0,0-0.1,0.8,0.1,0.6
	c0.1-0.2,0.2-0.5,0.2-0.7c0.6-2,1.3-3.8,2.4-5.5c2.6-3.9,6.9-6.4,11.4-5c0.8,0.3,1.6,0.7,2.3,1.2c0.1,0.1,1.2,0.9,1,0.2
	c-0.2-0.6-0.7-1.1-1.1-1.5C106.8,11.7,105.1,11.2,103.3,11.3L103.3,11.3z M102.3,16.2c-0.5,0-1.1,0.1-1.6,0.4
	c-1.6,0.8-2.2,2.8-1.4,4.4c0.8,1.6,2.8,2.3,4.4,1.4c1.6-0.8,2.2-2.8,1.4-4.4C104.6,16.9,103.5,16.3,102.3,16.2L102.3,16.2z
	 M104.5,24.2c-1,0.6-2.2,1-3.5,1c-0.3,0-0.5,0-0.8,0v9.5c0,0.9,0.2,1.5,0.6,2c0.4,0.4,0.9,0.7,1.5,0.7c0.6,0,1.2-0.2,1.6-0.7
	c0.4-0.4,0.6-1.1,0.6-2V24.2L104.5,24.2z"/>
</svg>
